<?xml version="1.0" encoding="UTF-8"?>
<svg id="Layer_1" xmlns="http://www.w3.org/2000/svg" baseProfile="tiny" version="1.2" viewBox="0 0 500 500">
  <!-- Generator: Adobe Illustrator 30.4.0, SVG Export Plug-In . SVG Version: 2.1.3 Build 87)  -->
  <g>
    <path d="M201.39,285.09l6.59-14.05c1.42-3.04,2.85-6.09,4.28-9.13-21.06-51.24-38.49-103.96-52.4-157.63-20.84,22.23-38.31,47.74-51.47,75.75,18.41,50.36,43.75,98.02,75.43,141.5,6.03-12.13,11.87-24.31,17.57-36.44h0Z" fill="#0014eb"/>
    <path d="M171.68,345.01c-31.07-40.94-56.61-85.62-76.19-132.84-9.77,29.37-15.14,60.8-15.14,93.51v39.26c18.3,21.47,35.04,44.3,50.06,68.39,15.23-21.55,28.78-44.64,41.28-68.31h0Z" fill="#0014eb"/>
    <path d="M80.34,382.53v88.52c12.53-11.5,24.07-24.06,34.79-37.41-10.66-17.73-22.28-34.78-34.79-51.1h0Z" fill="#0014eb"/>
    <path d="M226.09,232.75c9.06-18.81,18.46-37.53,28.58-55.83-.53-29.56-2.77-58.22-5.04-85.99-1.33-16.28-2.68-32.85-3.7-49.77-24.24,11.58-46.59,26.51-66.56,44.18,12.43,50.09,28,99.36,46.74,147.41h-.01Z" fill="#0014eb"/>
    <path d="M273.11,88.88c1.36,16.57,2.7,33.48,3.71,50.73,15.97-24.79,33.89-48.2,54.86-69.23,22.3-22.36,48.05-41.64,75.71-57.05h-38.86c-34.97,0-68.48,6.33-99.49,17.91,1.02,19.6,2.52,38.84,4.07,57.65h0Z" fill="#0014eb"/>
  </g>
  <g>
    <path d="M348.17,87.4c-24.73,24.8-45.17,53.56-63.25,84.16,44.24-11.95,89.28-20.47,134.73-25.5V33.73c-26.14,14.44-50.46,32.59-71.48,53.67Z" fill="#0014eb"/>
    <path d="M268.47,201.02c-8.8,16.59-17.12,33.5-25.2,50.46,44.86-1.54,89.22-3.19,133.54-4.85,12.81-.48,25.62-.96,38.44-1.44,2.85-16.5,4.42-33.45,4.42-50.78v-24.26c-50.63,5.73-100.74,15.86-149.73,30.43l-1.47.44h0Z" fill="#0014eb"/>
    <path d="M141.03,438.99c-12.88,17.05-26.95,33.1-42.56,47.69h33.12c48.37,0,93.91-12.15,133.94-33.53-42.1-10.05-84.35-14.87-124.51-14.17h0Z" fill="#0014eb"/>
    <path d="M325.85,361.65c-47.04,0-92.06-1.64-134.18-3.71-10.38,19.57-21.5,38.78-33.7,57.17,44.25.88,90.44,7.9,135.96,20.78,29.01-20.12,54.18-45.5,74.26-74.76-14.25.32-28.41.52-42.34.52Z" fill="#0014eb"/>
    <path d="M383.06,336.79c11.6-21.05,20.72-43.68,26.94-67.53-10.8.41-21.61.81-32.4,1.21-48.38,1.81-96.79,3.62-145.88,5.28-.86,1.84-1.73,3.69-2.59,5.52l-6.61,14.08c-6.13,13.03-12.41,26.14-18.92,39.18,55.66,2.59,116.23,4.21,179.47,2.24h0Z" fill="#0014eb"/>
  </g>
</svg>